<!-- Generated by IcoMoon.io -->
<svg version="1.1" xmlns="http://www.w3.org/2000/svg" width="40" height="40" viewBox="0 0 40 40">
<title>day-rec</title>
<rect fill="#d32f32" x="0" y="0" width="40" height="40"></rect>
<path fill="#fff" d="M24.076 29.375h-11.821c-0.9 0-1.631-0.735-1.631-1.631v-15.488c0-0.901 0.735-1.631 1.631-1.631h15.488c0.901 0 1.631 0.729 1.631 1.626v11.418l-4.891 5.707h-0.408zM11.44 15.516v12.229c0 0.457 0.368 0.814 0.821 0.814h11.407v-4.071c0-0.913 0.729-1.635 1.629-1.635h3.263v-7.337h-17.12zM11.44 14.701h17.12v-2.44c0-0.454-0.365-0.821-0.814-0.821h-15.491c-0.457 0-0.814 0.365-0.814 0.814v2.447zM24.484 28.152l3.831-4.484h-3.019c-0.445 0-0.813 0.368-0.813 0.822v3.661zM17.147 21.223v0.815h5.707v-0.815h-5.707zM13.071 20.408h2.446v2.446h-2.446v-2.446zM13.886 21.223v0.815h0.815v-0.815h-0.815zM17.147 17.962v0.815h9.783v-0.815h-9.783zM13.071 17.147h2.446v2.446h-2.446v-2.446zM13.886 17.962v0.815h0.815v-0.815h-0.815zM17.147 24.484v0.815h4.891v-0.815h-4.891zM13.071 23.668h2.446v2.446h-2.446v-2.446zM13.886 24.484v0.815h0.815v-0.815h-0.815z"></path>
</svg>
