<!-- Generated by IcoMoon.io -->
<svg version="1.1" xmlns="http://www.w3.org/2000/svg" width="40" height="40" viewBox="0 0 40 40">
<title>fav</title>
<rect fill="#d32f32" x="0" y="0" width="40" height="40"></rect>
<path fill="#fff" d="M22.639 8.125h0.44l5.278 6.157v15.841c0 0.961-0.787 1.751-1.757 1.751h-13.199c-0.973 0-1.757-0.791-1.757-1.766v-20.219c0-0.975 0.789-1.766 1.762-1.766h9.234zM22.199 9.005h-8.8c-0.484 0-0.876 0.4-0.876 0.876v20.239c0 0.484 0.4 0.876 0.88 0.876h13.194c0.486 0 0.88-0.391 0.88-0.874v-14.959h-3.52c-0.971 0-1.757-0.78-1.757-1.764v-4.393zM23.079 9.444v3.951c0 0.49 0.396 0.887 0.877 0.887h3.257l-4.134-4.838zM20 25.718l-3.519 2.639 1.319-4.398-3.519-2.639h4.398l1.319-4.398 1.319 4.398h4.398l-3.519 2.639 1.319 4.398-3.519-2.639z"></path>
</svg>
