<!-- Generated by IcoMoon.io -->
<svg version="1.1" xmlns="http://www.w3.org/2000/svg" width="40" height="40" viewBox="0 0 40 40">
<title>tab-bar-search</title>
<rect fill="#d32f32" x="0" y="0" width="40" height="40"></rect>
<path fill="#fff" d="M30.556 30.273l-0.534 0.534c-0.591 0.591-1.548 0.591-2.138 0l-4.277-4.275c-0.494-0.496-0.549-1.239-0.212-1.817l-2.339-2.337c-1.258 0.933-2.809 1.491-4.495 1.491-4.174 0-7.558-3.384-7.558-7.558s3.384-7.559 7.558-7.559c4.175 0 7.558 3.384 7.558 7.559 0 1.943-0.738 3.709-1.944 5.049l2.287 2.287c0.579-0.337 1.322-0.283 1.816 0.213l4.277 4.275c0.591 0.591 0.591 1.549 0.001 2.139zM22.216 16.278c0-3.131-2.539-5.669-5.669-5.669s-5.669 2.537-5.669 5.669 2.538 5.669 5.669 5.669 5.67-2.538 5.67-5.669z"></path>
</svg>
