<!-- Generated by IcoMoon.io -->
<svg version="1.1" xmlns="http://www.w3.org/2000/svg" width="32" height="32" viewBox="0 0 32 32">
<title>about-active</title>
<path d="M16 0c-8.837 0-16 7.163-16 16s7.163 16 16 16 16-7.163 16-16-7.163-16-16-16zM18.51 21.887c-1.207 1.813-2.436 3.21-4.502 3.21-1.41-0.23-1.99-1.241-1.685-2.271l2.658-8.805c0.065-0.215-0.043-0.446-0.24-0.516-0.196-0.069-0.58 0.186-0.912 0.55l-1.607 1.934c-0.043-0.325-0.005-0.862-0.005-1.078 1.207-1.813 3.191-3.243 4.537-3.243 1.279 0.13 1.884 1.153 1.662 2.277l-2.677 8.848c-0.036 0.199 0.070 0.402 0.251 0.466 0.197 0.069 0.61-0.186 0.944-0.55l1.606-1.932c0.043 0.325-0.030 0.894-0.030 1.11zM18.151 10.386c-1.017 0-1.841-0.741-1.841-1.831s0.825-1.83 1.841-1.83 1.841 0.741 1.841 1.83c0 1.092-0.825 1.831-1.841 1.831z"></path>
</svg>
